<svg height="512pt" viewBox="0 -5 512 511" width="512pt" xmlns="http://www.w3.org/2000/svg"><path d="m468.285156 373.925781c3.507813 6.199219 3.121094 13.832031-.945312 19.679688-45.214844 65.054687-120.488282 107.652343-205.71875 107.652343-138.136719 0-250.144532-111.863281-250.378906-249.945312-.234376-137.550781 111.636718-250.171875 249.1875-250.808594 85.796874-.398437 161.617187 42.363282 207.03125 107.820313 4.019531 5.792969 4.292968 13.378906.824218 19.515625-20.550781 36.335937-32.289062 78.3125-32.289062 123.039062 0 44.726563 11.742187 86.707032 32.289062 123.046875zm0 0" fill="#fcb30b"/><path d="m132.855469 393.953125v-286.148437h334.246093c28.292969 40.558593 44.898438 89.875 44.898438 143.074218 0 53.199219-16.605469 102.515625-44.898438 143.074219zm0 0" fill="#ffdea4"/><path d="m132.855469 359.207031v-251.402343h334.246093c28.292969 40.558593 44.898438 89.875 44.898438 143.074218 0 38.804688-8.828125 75.546875-24.585938 108.328125zm0 0" fill="#fff2b4"/><path d="m351.40625 164.011719c47.976562 0 86.867188 38.890625 86.867188 86.867187 0 47.976563-38.890626 86.867188-86.867188 86.867188-47.972656 0-86.863281-38.890625-86.863281-86.867188 0-47.976562 38.890625-86.867187 86.863281-86.867187zm0 0" fill="#ffdf8e"/><path d="m20.4375 107.804688h183.953125v286.148437h-183.953125c-11.285156 0-20.4375-9.152344-20.4375-20.441406v-71.535157c0-5.925781 4.804688-10.730468 10.730469-10.730468 22.292969 0 40.367187-18.074219 40.367187-40.367188 0-22.292968-18.074218-40.367187-40.367187-40.367187-5.925781 0-10.730469-4.804688-10.730469-10.730469v-71.535156c0-11.289063 9.152344-20.441406 20.4375-20.441406zm0 0" fill="#fc5426"/><path d="m20.4375 107.804688h183.953125v251.402343h-183.953125c-11.285156 0-20.4375-9.152343-20.4375-20.441406v-36.789063c0-5.925781 4.804688-10.730468 10.730469-10.730468 22.292969 0 40.367187-18.074219 40.367187-40.367188 0-22.292968-18.074218-40.367187-40.367187-40.367187-5.925781 0-10.730469-4.804688-10.730469-10.730469v-71.535156c0-11.289063 9.152344-20.441406 20.4375-20.441406zm0 0" fill="#fc6930"/><path d="m173.734375 347.964844v10.21875c0 2.824218-2.289063 5.109375-5.113281 5.109375h-91.972656c-2.824219 0-5.113282-2.285157-5.113282-5.109375v-10.21875c0-2.820313 2.289063-5.109375 5.113282-5.109375h91.972656c2.824218 0 5.113281 2.289062 5.113281 5.109375zm-5.113281-45.988282h-61.316406c-2.820313 0-5.109376 2.289063-5.109376 5.109376v10.21875c0 2.824218 2.289063 5.109374 5.109376 5.109374h61.316406c2.824218 0 5.113281-2.285156 5.113281-5.109374v-10.21875c0-2.820313-2.289063-5.109376-5.113281-5.109376zm-91.972656 20.4375h10.21875c2.820312 0 5.109374-2.285156 5.109374-5.109374v-10.21875c0-2.820313-2.289062-5.109376-5.109374-5.109376h-10.21875c-2.824219 0-5.113282 2.289063-5.113282 5.109376v10.21875c0 2.824218 2.289063 5.109374 5.113282 5.109374zm0-40.875h61.316406c2.820312 0 5.109375-2.289062 5.109375-5.109374v-10.222657c0-2.820312-2.289063-5.109375-5.109375-5.109375h-61.316406c-2.824219 0-5.113282 2.289063-5.113282 5.109375v10.222657c0 2.820312 2.289063 5.109374 5.113282 5.109374zm91.972656-20.441406h-10.21875c-2.820313 0-5.109375 2.289063-5.109375 5.109375v10.222657c0 2.820312 2.289062 5.109374 5.109375 5.109374h10.21875c2.824218 0 5.113281-2.289062 5.113281-5.109374v-10.222657c0-2.820312-2.289063-5.109375-5.113281-5.109375zm0-81.753906h-10.21875c-2.820313 0-5.109375 2.285156-5.109375 5.109375v10.21875c0 2.820313 2.289062 5.109375 5.109375 5.109375h10.21875c2.824218 0 5.113281-2.289062 5.113281-5.109375v-10.21875c0-2.824219-2.289063-5.109375-5.113281-5.109375zm0 40.875h-30.65625c-2.824219 0-5.109375 2.289062-5.109375 5.109375v10.222656c0 2.820313 2.285156 5.109375 5.109375 5.109375h30.65625c2.824218 0 5.113281-2.289062 5.113281-5.109375v-10.222656c0-2.820313-2.289063-5.109375-5.113281-5.109375zm-91.972656 20.441406h10.21875c2.820312 0 5.109374-2.289062 5.109374-5.109375v-10.222656c0-2.820313-2.289062-5.109375-5.109374-5.109375h-10.21875c-2.824219 0-5.113282 2.289062-5.113282 5.109375v10.222656c0 2.820313 2.289063 5.109375 5.113282 5.109375zm30.65625-20.441406c-2.820313 0-5.109376 2.289062-5.109376 5.109375v10.222656c0 2.820313 2.289063 5.109375 5.109376 5.109375h10.21875c2.824218 0 5.109374-2.289062 5.109374-5.109375v-10.222656c0-2.820313-2.285156-5.109375-5.109374-5.109375zm-30.65625-20.4375h61.316406c2.820312 0 5.109375-2.289062 5.109375-5.109375v-10.21875c0-2.824219-2.289063-5.109375-5.109375-5.109375h-61.316406c-2.824219 0-5.113282 2.285156-5.113282 5.109375v10.21875c0 2.820313 2.289063 5.109375 5.113282 5.109375zm91.972656-61.316406h-91.972656c-2.824219 0-5.113282 2.285156-5.113282 5.109375v10.21875c0 2.820312 2.289063 5.109375 5.113282 5.109375h91.972656c2.824218 0 5.113281-2.289063 5.113281-5.109375v-10.21875c0-2.824219-2.289063-5.109375-5.113281-5.109375zm0 0" fill="#d63d24"/><path d="m265.707031 187.589844c0-12.375 10.035157-22.410156 22.410157-22.410156 12.378906 0 22.414062 10.035156 22.414062 22.410156 0 12.378906-10.035156 22.410156-22.414062 22.410156-12.375 0-22.410157-10.03125-22.410157-22.410156zm148.988281 104.167968c-12.375 0-22.410156 10.03125-22.410156 22.410157 0 12.375 10.035156 22.410156 22.410156 22.410156 12.378907 0 22.410157-10.035156 22.410157-22.410156 0-12.378907-10.03125-22.410157-22.410157-22.410157zm16.425782-120.589843c-7.984375-7.984375-20.925782-7.984375-28.90625 0l-130.519532 130.519531c-7.980468 7.980469-7.980468 20.921875 0 28.902344 7.980469 7.984375 20.921876 7.984375 28.90625 0l130.519532-130.519532c7.980468-7.980468 7.980468-20.921874 0-28.902343zm0 0" fill="#fd3980"/><path d="m437.003906 312.066406c-9.960937 2.746094-20.453125 4.21875-31.289062 4.21875-4.527344 0-8.992188-.265625-13.386719-.765625-.023437-.445312-.042969-.898437-.042969-1.351562 0-12.378907 10.035156-22.410157 22.410156-22.410157 11.667969 0 21.25 8.917969 22.308594 20.308594zm-5.882812-140.898437c-7.984375-7.984375-20.925782-7.984375-28.90625 0l-80.675782 80.675781c-7.839843 7.839844-8.070312 20.566406-.371093 28.539062.117187.121094.234375.238282.351562.359376 7.878907 8.09375 20.933594 8 28.917969.011718l80.683594-80.683594c7.980468-7.980468 7.980468-20.921874 0-28.902343zm-138.207032-5.46875c-3.070312 10.488281-4.722656 21.578125-4.722656 33.058593 0 3.789063.1875 7.53125.535156 11.226563 12.097657-.324219 21.804688-10.21875 21.804688-22.394531 0-10.730469-7.546875-19.695313-17.617188-21.890625zm0 0" fill="#fc5e93"/></svg>