<?xml version="1.0" encoding="iso-8859-1"?>
<!-- Generator: Adobe Illustrator 19.0.0, SVG Export Plug-In . SVG Version: 6.00 Build 0)  -->
<svg version="1.1" id="Capa_1" xmlns="http://www.w3.org/2000/svg" xmlns:xlink="http://www.w3.org/1999/xlink" x="0px" y="0px"
	 viewBox="0 0 464 464" style="enable-background:new 0 0 464 464;" xml:space="preserve">
<path style="fill:#E6E6E6;" d="M48,464H24c-13.255,0-24-10.745-24-24l0,0V24C0,10.745,10.745,0,24,0h416c13.255,0,24,10.745,24,24
	v416c0,13.255-10.745,24-24,24l0,0H48z"/>
<path style="fill:#0071BC;" d="M24,0h416c13.255,0,24,10.745,24,24v40l0,0H0l0,0V24C0,10.745,10.745,0,24,0z"/>
<path style="fill:#DA4836;" d="M24,24h16v16H24V24z"/>
<path style="fill:#F8CF26;" d="M56,24h16v16H56V24z"/>
<path style="fill:#3DBF50;" d="M88,24h16v16H88V24z"/>
<path style="fill:#FBB03B;" d="M211.2,116l-78.4,136c-6.627,11.479-2.694,26.157,8.785,32.785c3.653,2.109,7.797,3.218,12.015,3.215
	h156.848c13.255,0.008,24.007-10.73,24.015-23.985c0.003-4.218-1.106-8.362-3.215-12.015L252.8,116
	c-6.613-11.488-21.286-15.439-32.773-8.827C216.357,109.285,213.312,112.331,211.2,116L211.2,116z"/>
<g>
	<path style="fill:#999999;" d="M40,352h320v16H40V352z"/>
	<path style="fill:#999999;" d="M40,384h32v16H40V384z"/>
	<path style="fill:#999999;" d="M40,416h32v16H40V416z"/>
	<path style="fill:#999999;" d="M88,416h32v16H88V416z"/>
	<path style="fill:#999999;" d="M88,384h32v16H88V384z"/>
	<path style="fill:#999999;" d="M136,384h32v16h-32V384z"/>
</g>
<path style="fill:#DA4836;" d="M218.344,386.344L208,396.688l-10.344-10.344l-11.312,11.312L196.688,408l-10.344,10.344
	l11.312,11.312L208,419.312l10.344,10.344l11.312-11.312L219.312,408l10.344-10.344L218.344,386.344z"/>
<g>
	<path style="fill:#999999;" d="M88,320h272v16H88V320z"/>
	<path style="fill:#999999;" d="M56,320h16v16H56V320z"/>
</g>
<g>
	<path style="fill:#DA4836;" d="M282.344,386.344L272,396.688l-10.344-10.344l-11.312,11.312L260.688,408l-10.344,10.344
		l11.312,11.312L272,419.312l10.344,10.344l11.312-11.312L283.312,408l10.344-10.344L282.344,386.344z"/>
	<path style="fill:#DA4836;" d="M346.344,386.344L336,396.688l-10.344-10.344l-11.312,11.312L324.688,408l-10.344,10.344
		l11.312,11.312L336,419.312l10.344,10.344l11.312-11.312L347.312,408l10.344-10.344L346.344,386.344z"/>
	<path style="fill:#DA4836;" d="M421.656,333.656l-11.312-11.312L400,332.688l-10.344-10.344l-11.312,11.312L388.688,344
		l-10.344,10.344l11.312,11.312L400,355.312l10.344,10.344l11.312-11.312L411.312,344L421.656,333.656z"/>
</g>
<g>
	<path style="fill:#F15A24;" d="M224,143.976h16v88h-16V143.976z"/>
	<path style="fill:#F15A24;" d="M224,247.976h16v16h-16V247.976z"/>
</g>
</svg>
