<svg id="Capa_1" enable-background="new 0 0 512 512" height="512" viewBox="0 0 512 512" width="512" xmlns="http://www.w3.org/2000/svg"><g><g><path d="m361 196h30v60h-30z" fill="#47568c"/></g><path d="m376 196h15v60h-15z" fill="#29376d"/><g><path d="m271 241v271h210v-271z" fill="#f0f7ff"/></g><path d="m376 241h105v271h-105z" fill="#dfe7f4"/><g><path d="m376 0c-57.9 0-105 48.1-105 106s47.1 105 105 105 105-47.1 105-105-47.1-106-105-106z" fill="#7fe881"/></g><path d="m481 106c0 57.9-47.1 105-105 105v-211c57.9 0 105 48.1 105 106z" fill="#5bc980"/><g><path d="m331 301h90v30h-90z" fill="#dfe7f4"/></g><g><path d="m331 361h90v30h-90z" fill="#dfe7f4"/></g><g><path d="m331 421h90v30h-90z" fill="#dfe7f4"/></g><g fill="#c7cfe1"><path d="m376 301h45v30h-45z"/><path d="m376 361h45v30h-45z"/><path d="m376 421h45v30h-45z"/></g><g><path d="m121 196h30v60h-30z" fill="#47568c"/></g><path d="m136 196h15v60h-15z" fill="#29376d"/><g><path d="m31 241v271h210v-271z" fill="#f0f7ff"/></g><path d="m136 241h105v271h-105z" fill="#dfe7f4"/><g><path d="m136 0c-57.9 0-105 48.1-105 106s47.1 105 105 105 105-47.1 105-105-47.1-106-105-106z" fill="#ff7b4a"/></g><path d="m241 106c0 57.9-47.1 105-105 105v-211c57.9 0 105 48.1 105 106z" fill="#ec5569"/><path d="m181 91v30h-30v30h-30v-30h-30v-30h30v-30h30v30z" fill="#f0f7ff"/><path d="m181 91v30h-30v30h-15v-90h15v30z" fill="#dfe7f4"/><g><path d="m91 301h90v30h-90z" fill="#dfe7f4"/></g><g><path d="m91 361h90v30h-90z" fill="#dfe7f4"/></g><g><path d="m91 421h90v30h-90z" fill="#dfe7f4"/></g><path d="m136 301h45v30h-45z" fill="#c7cfe1"/><path d="m136 361h45v30h-45z" fill="#c7cfe1"/><path d="m136 421h45v30h-45z" fill="#c7cfe1"/><path d="m410.395 65.395-34.395 34.394-7.5 7.5-19.395-19.394-21.21 21.21 40.605 40.606 7.5-7.5 55.605-55.606z" fill="#f0f7ff"/><path d="m410.395 65.395-34.395 34.394v42.422l55.605-55.606z" fill="#dfe7f4"/></g></svg>