<?xml version="1.0" encoding="iso-8859-1"?>
<!-- Generator: Adobe Illustrator 19.0.0, SVG Export Plug-In . SVG Version: 6.00 Build 0)  -->
<svg version="1.1" id="Capa_1" xmlns="http://www.w3.org/2000/svg" xmlns:xlink="http://www.w3.org/1999/xlink" x="0px" y="0px"
	 viewBox="0 0 512 512" style="enable-background:new 0 0 512 512;" xml:space="preserve">
<path style="fill:#EAEAE1;" d="M416.878,57.715v446.166c0,4.484-3.635,8.119-8.119,8.119H103.242c-4.484,0-8.119-3.635-8.119-8.119
	V57.715H416.878z"/>
<g>
	<rect x="95.12" y="57.713" style="fill:#D8D7CA;" width="321.76" height="38.23"/>
	<path style="fill:#D8D7CA;" d="M416.878,486.673v17.208c0,4.484-3.635,8.119-8.119,8.119H103.242c-4.484,0-8.119-3.635-8.119-8.119
		v-17.208H416.878z"/>
</g>
<g>
	<rect x="95.12" y="173.18" style="fill:#49BAEC;" width="321.75" height="15.223"/>
	<rect x="95.12" y="285.43" style="fill:#49BAEC;" width="321.75" height="15.223"/>
	<rect x="95.12" y="397.68" style="fill:#49BAEC;" width="321.75" height="15.223"/>
</g>
<circle style="fill:#00D8DE;" cx="161.29" cy="352.36" r="21.578"/>
<g>
	<path style="fill:#8A8791;" d="M257.136,327.579h-33.613c-4.204,0-7.611-3.408-7.611-7.612s3.408-7.611,7.611-7.611h33.613
		c4.204,0,7.612,3.408,7.612,7.611C264.748,324.171,261.34,327.579,257.136,327.579z"/>
	<path style="fill:#8A8791;" d="M383.753,354.971h-160.23c-4.204,0-7.611-3.408-7.611-7.612s3.408-7.611,7.611-7.611h160.23
		c4.204,0,7.612,3.408,7.612,7.611C391.365,351.563,387.956,354.971,383.753,354.971z"/>
	<path style="fill:#8A8791;" d="M383.753,381.39h-160.23c-4.204,0-7.611-3.408-7.611-7.611c0-4.204,3.408-7.612,7.611-7.612h160.23
		c4.204,0,7.612,3.408,7.612,7.612C391.365,377.982,387.956,381.39,383.753,381.39z"/>
</g>
<circle style="fill:#FF52A1;" cx="161.29" cy="241.59" r="21.578"/>
<g>
	<path style="fill:#8A8791;" d="M257.136,216.805h-33.613c-4.204,0-7.611-3.408-7.611-7.611s3.408-7.611,7.611-7.611h33.613
		c4.204,0,7.612,3.408,7.612,7.611S261.34,216.805,257.136,216.805z"/>
	<path style="fill:#8A8791;" d="M383.753,244.197h-160.23c-4.204,0-7.611-3.408-7.611-7.611c0-4.204,3.408-7.611,7.611-7.611h160.23
		c4.204,0,7.612,3.408,7.612,7.611C391.365,240.789,387.956,244.197,383.753,244.197z"/>
	<path style="fill:#8A8791;" d="M383.753,270.617h-160.23c-4.204,0-7.611-3.408-7.611-7.611c0-4.204,3.408-7.612,7.611-7.612h160.23
		c4.204,0,7.612,3.408,7.612,7.612C391.365,267.209,387.956,270.617,383.753,270.617z"/>
</g>
<circle style="fill:#00D8DE;" cx="161.29" cy="128.33" r="21.578"/>
<g>
	<path style="fill:#8A8791;" d="M257.136,103.552h-33.613c-4.204,0-7.611-3.408-7.611-7.611s3.408-7.611,7.611-7.611h33.613
		c4.204,0,7.612,3.408,7.612,7.611S261.34,103.552,257.136,103.552z"/>
	<path style="fill:#8A8791;" d="M383.753,130.944h-160.23c-4.204,0-7.611-3.408-7.611-7.612s3.408-7.611,7.611-7.611h160.23
		c4.204,0,7.612,3.408,7.612,7.611C391.365,127.536,387.956,130.944,383.753,130.944z"/>
	<path style="fill:#8A8791;" d="M383.753,157.363h-160.23c-4.204,0-7.611-3.408-7.611-7.611c0-4.204,3.408-7.611,7.611-7.611h160.23
		c4.204,0,7.612,3.408,7.612,7.611C391.365,153.955,387.956,157.363,383.753,157.363z"/>
</g>
<circle style="fill:#FF52A1;" cx="161.29" cy="462.03" r="21.578"/>
<g>
	<path style="fill:#8A8791;" d="M257.136,437.249h-33.613c-4.204,0-7.611-3.408-7.611-7.612s3.408-7.611,7.611-7.611h33.613
		c4.204,0,7.612,3.408,7.612,7.611S261.34,437.249,257.136,437.249z"/>
	<path style="fill:#8A8791;" d="M383.753,464.641h-160.23c-4.204,0-7.611-3.408-7.611-7.612s3.408-7.611,7.611-7.611h160.23
		c4.204,0,7.612,3.408,7.612,7.611C391.365,461.233,387.956,464.641,383.753,464.641z"/>
	<path style="fill:#8A8791;" d="M383.753,491.06h-160.23c-4.204,0-7.611-3.408-7.611-7.611c0-4.204,3.408-7.612,7.611-7.612h160.23
		c4.204,0,7.612,3.408,7.612,7.612C391.365,487.653,387.956,491.06,383.753,491.06z"/>
</g>
<rect x="75.721" y="7.611" style="fill:#0087FF;" width="360.55" height="63.05"/>
<g>
	<path style="fill:#ADACB2;" d="M461.697,15.223H50.305c-4.204,0-7.611-3.408-7.611-7.611S46.102,0,50.305,0h411.391
		c4.204,0,7.611,3.408,7.611,7.611S465.899,15.223,461.697,15.223z"/>
	<path style="fill:#ADACB2;" d="M461.697,78.273H50.305c-4.204,0-7.611-3.408-7.611-7.611s3.408-7.611,7.611-7.611h411.391
		c4.204,0,7.611,3.408,7.611,7.611S465.899,78.273,461.697,78.273z"/>
</g>
<g>
</g>
<g>
</g>
<g>
</g>
<g>
</g>
<g>
</g>
<g>
</g>
<g>
</g>
<g>
</g>
<g>
</g>
<g>
</g>
<g>
</g>
<g>
</g>
<g>
</g>
<g>
</g>
<g>
</g>
</svg>
