<svg id="Layer_1" enable-background="new 0 0 256 256" height="512" viewBox="0 0 256 256" width="512" xmlns="http://www.w3.org/2000/svg"><path d="m47.336 159.224c-.974 11.564-13.025 13.39-13.025 13.39 10.347.487 12.925 14.059 12.925 14.059.221-9.677 13.321-14.202 13.321-14.202-9.813-.588-13.221-13.247-13.221-13.247z" fill="#d6df58"/><path d="m60.648 170.973c-8.605-.515-11.833-12.024-11.864-12.141-.191-.703-.865-1.167-1.583-1.102-.725.066-1.298.642-1.359 1.367-.86 10.215-11.313 11.964-11.754 12.033-.763.115-1.313.79-1.273 1.561.04.77.657 1.384 1.428 1.421 9.028.425 11.499 12.718 11.523 12.842.137.711.759 1.217 1.472 1.217.042 0 .084-.001.126-.005.764-.064 1.357-.693 1.375-1.459.195-8.508 12.192-12.777 12.313-12.819.675-.235 1.092-.914.994-1.623-.101-.708-.685-1.249-1.398-1.292zm-13.567 10.346c-1.357-3.131-3.709-6.908-7.587-8.877 2.931-1.405 6.409-3.913 8.202-8.273 1.551 3.071 4.199 6.88 8.334 8.723-3.007 1.64-6.922 4.405-8.949 8.427z" fill="#3a312a"/><path d="m25.637 176.204c-.689 8.179-9.213 9.47-9.213 9.47 7.318.344 9.142 9.944 9.142 9.944.156-6.844 9.422-10.045 9.422-10.045-6.94-.415-9.351-9.369-9.351-9.369z" fill="#d6df58"/><path d="m35.079 184.076c-5.766-.345-7.972-8.186-7.994-8.265-.19-.702-.849-1.168-1.582-1.102-.726.065-1.299.642-1.36 1.368-.579 6.871-7.647 8.067-7.943 8.114-.763.115-1.313.79-1.273 1.561.04.77.657 1.384 1.428 1.421 6.035.284 7.724 8.644 7.739 8.726.135.713.759 1.22 1.472 1.22.042 0 .083-.001.125-.005.765-.063 1.358-.694 1.376-1.461.13-5.709 8.331-8.634 8.412-8.662.676-.234 1.094-.913.996-1.622-.098-.708-.682-1.25-1.396-1.293zm-9.585 6.795c-.924-1.886-2.34-3.947-4.447-5.28 1.855-1.041 3.697-2.63 4.871-4.917 1.057 1.874 2.654 3.955 4.941 5.224-1.85 1.101-3.989 2.741-5.365 4.973z" fill="#3a312a"/><path d="m25.637 149.547c-.689 8.179-9.213 9.471-9.213 9.471 7.318.344 9.142 9.944 9.142 9.944.156-6.845 9.422-10.045 9.422-10.045-6.94-.416-9.351-9.37-9.351-9.37z" fill="#d6df58"/><path d="m35.079 157.419c-5.766-.345-7.972-8.186-7.994-8.265-.19-.702-.849-1.169-1.582-1.102-.726.065-1.299.642-1.36 1.368-.579 6.871-7.647 8.066-7.943 8.113-.763.115-1.313.79-1.273 1.561.04.77.657 1.384 1.427 1.421 6.036.284 7.724 8.645 7.74 8.726.135.713.759 1.22 1.472 1.22.042 0 .083-.001.125-.005.765-.063 1.358-.694 1.376-1.461.13-5.709 8.331-8.634 8.412-8.662.676-.234 1.094-.913.996-1.622-.098-.708-.682-1.249-1.396-1.292zm-9.585 6.795c-.924-1.886-2.34-3.947-4.447-5.28 1.855-1.041 3.697-2.63 4.871-4.917 1.057 1.874 2.654 3.955 4.941 5.224-1.85 1.101-3.989 2.741-5.365 4.973z" fill="#3a312a"/><path d="m200.052 123h-130.104c-2.421 0-4.384 1.963-4.384 4.384v11.198c0 2.421 1.963 4.384 4.384 4.384h130.104c2.421 0 4.384-1.963 4.384-4.384v-11.198c0-2.421-1.963-4.384-4.384-4.384z" fill="#f16c7a"/><path d="m200.052 121.5h-130.104c-3.245 0-5.884 2.64-5.884 5.884v11.198c0 3.244 2.64 5.884 5.884 5.884h130.104c3.245 0 5.884-2.64 5.884-5.884v-11.198c0-3.244-2.64-5.884-5.884-5.884zm2.884 17.083c0 1.59-1.294 2.884-2.884 2.884h-130.104c-1.59 0-2.884-1.293-2.884-2.884v-11.198c0-1.59 1.294-2.884 2.884-2.884h130.104c1.59 0 2.884 1.294 2.884 2.884z" fill="#3a312a"/><path d="m73.317 142.966v91.606c0 2.695 2.185 4.881 4.88 4.881h111.537c2.695 0 4.88-2.185 4.88-4.881v-91.606z" fill="#f16c7a"/><path d="m194.615 141.466h-121.298c-.829 0-1.5.671-1.5 1.5v91.606c0 3.518 2.862 6.38 6.38 6.38h111.537c3.519 0 6.381-2.862 6.381-6.38v-91.606c0-.828-.671-1.5-1.5-1.5zm-1.5 93.107c0 1.864-1.517 3.38-3.381 3.38h-111.536c-1.864 0-3.38-1.517-3.38-3.38v-90.106h118.298v90.106z" fill="#3a312a"/><path d="m112.399 142.98v30.774l14.09-9.964 4.774 9.964 5.709-5.19 6.643 5.19 7.265-5.761 7.966 5.761v-30.774z" fill="#d7e057"/><path d="m158.846 141.479h-46.446c-.829 0-1.5.671-1.5 1.5v30.774c0 .561.313 1.074.811 1.332.499.258 1.097.217 1.556-.107l12.639-8.938 4.006 8.361c.205.428.6.733 1.064.824.096.019.192.028.288.028.37 0 .731-.137 1.009-.39l4.773-4.339 5.646 4.411c.546.426 1.313.423 1.855-.007l6.375-5.054 7.045 5.094c.456.331 1.06.375 1.562.121.501-.256.817-.772.817-1.336v-30.774c0-.828-.672-1.5-1.5-1.5zm-1.5 29.339-5.587-4.04c-.544-.393-1.284-.378-1.811.04l-6.34 5.027-5.712-4.463c-.272-.212-.598-.318-.923-.318-.362 0-.724.131-1.009.39l-4.218 3.834-3.903-8.146c-.191-.398-.548-.693-.975-.804-.428-.111-.883-.029-1.244.227l-11.724 8.29v-26.376h43.446z" fill="#3a312a"/><path d="m123.113 220.044h-34.556c-1.951 0-3.532 1.581-3.532 3.532v1.24c0 1.95 1.581 3.532 3.532 3.532h34.556c1.951 0 3.532-1.581 3.532-3.532v-1.24c0-1.951-1.582-3.532-3.532-3.532z" fill="#87796f"/><path d="m123.113 218.544h-34.556c-2.774 0-5.032 2.257-5.032 5.032v1.24c0 2.774 2.257 5.032 5.032 5.032h34.556c2.774 0 5.032-2.257 5.032-5.032v-1.24c0-2.774-2.258-5.032-5.032-5.032zm2.032 6.272c0 1.12-.912 2.032-2.032 2.032h-34.556c-1.12 0-2.032-.912-2.032-2.032v-1.24c0-1.12.912-2.032 2.032-2.032h34.556c1.12 0 2.032.912 2.032 2.032z" fill="#3a312a"/><path d="m184.335 22.141h55.241v75.288h-55.241z" fill="#ef6d7a"/><path d="m239.576 20.641h-55.241c-.829 0-1.5.671-1.5 1.5v75.288c0 .829.671 1.5 1.5 1.5h15.548c.829 0 1.5-.671 1.5-1.5s-.671-1.5-1.5-1.5h-14.048v-72.288h52.241v72.288h-22.579c-.829 0-1.5.671-1.5 1.5s.671 1.5 1.5 1.5h24.079c.829 0 1.5-.671 1.5-1.5v-75.288c0-.829-.672-1.5-1.5-1.5z" fill="#3a312a"/><path d="m162.89 22.141c-5.16 0-9.342 4.183-9.342 9.342v56.603c0 5.16 4.183 9.342 9.342 9.342h21.444v-75.287z" fill="#8ac5dc"/><path d="m184.334 20.641h-21.444c-5.979 0-10.843 4.864-10.843 10.842v20.034c0 .829.671 1.5 1.5 1.5s1.5-.671 1.5-1.5v-20.034c0-4.324 3.518-7.842 7.843-7.842h19.944v72.288h-19.944c-4.325 0-7.843-3.518-7.843-7.842v-21.505c0-.829-.671-1.5-1.5-1.5s-1.5.671-1.5 1.5v21.504c0 5.979 4.864 10.842 10.843 10.842h21.444c.829 0 1.5-.671 1.5-1.5v-75.287c0-.829-.671-1.5-1.5-1.5z" fill="#3a312a"/><path d="m168.941 30.708c-3.892 0-7.047 3.155-7.047 7.047s3.155 7.047 7.047 7.047 7.047-3.155 7.047-7.047-3.155-7.047-7.047-7.047z" fill="#87796f"/><path d="m168.941 29.208c-4.713 0-8.547 3.834-8.547 8.547s3.835 8.547 8.547 8.547 8.547-3.834 8.547-8.547-3.834-8.547-8.547-8.547zm0 14.094c-3.059 0-5.547-2.488-5.547-5.547s2.489-5.547 5.547-5.547 5.547 2.489 5.547 5.547-2.488 5.547-5.547 5.547z" fill="#3a312a"/><path d="m153.626 89.221c-.049-.37-.074-.749-.074-1.136v-56.605c0-.173.008-.338.008-.502l-2.625-.667c-12.723-3.234-25.793-4.261-38.919-4.343-.107 0-.206-.008-.313-.008h-14.116c-3.617 0-7.216-.508-10.693-1.503-7.693-2.201-22.179-6.208-30.909-7.762-4.869-.867-9.746 2.134-10.817 6.962-1.14 5.139 2.242 10.116 7.361 11.005 13.202 2.295 27.384 6.506 39.509 10.666-15.647-2.206-43.424-4.707-66.942.642-4.829 1.098-8.232 5.675-7.389 10.554.903 5.226 5.991 8.55 11.085 7.367 21.951-5.095 49.567-2.112 63.273-.049v.124c-12.93.815-46.012 4.919-72.146 25.47-4.151 3.264-4.714 9.396-1.091 13.372 3.283 3.602 8.86 3.763 12.706.77 16.359-12.731 36.558-17.927 50.261-20.05-5.924 6.167-9.32 14.344-9.189 22.924.208 15.155 11.025 28.488 25.788 31.877 4.168.957 8.562-1.248 9.879-5.316 1.509-4.663-1.354-9.48-6.019-10.484-7.527-1.618-13.283-8.626-13.388-16.302-.104-6.05 3.271-11.611 8.974-14.767 5.672-3.137 12.091-3.051 17.171.233 4.449 2.875 7.209 8.011 7.383 13.736.179 5.612-2.189 10.861-6.329 14.034-3.361 2.576-4.579 7.222-2.412 10.859 2.499 4.194 7.987 5.232 11.821 2.41 8.311-6.117 13.191-16.047 13.191-26.731 0-.354-.005-.711-.016-1.067-.099-3.278-.666-6.462-1.631-9.477 1.68-.942 3.231-1.68 4.46-2.098z" fill="#fae6ca"/><path d="m155.052 88.085v-21.503c0-.829-.671-1.5-1.5-1.5s-1.5.671-1.5 1.5v21.503.087l-11.056 3.768c-1.281.436-2.91 1.2-4.711 2.21-.622.349-.912 1.086-.695 1.765.942 2.943 1.467 5.994 1.56 9.065.01.341.016.683.016 1.021 0 10.184-4.703 19.726-12.58 25.523-1.503 1.107-3.417 1.53-5.248 1.159-1.856-.375-3.417-1.487-4.396-3.129-1.711-2.873-.836-6.7 2.036-8.902 4.524-3.468 7.109-9.177 6.916-15.27-.189-6.218-3.205-11.807-8.068-14.95-5.553-3.589-12.548-3.696-18.712-.286-6.219 3.441-9.863 9.462-9.748 16.1.115 8.357 6.38 15.986 14.572 17.747 1.831.395 3.418 1.551 4.353 3.174.948 1.645 1.145 3.556.554 5.381-1.044 3.226-4.607 5.123-8.116 4.316-14.07-3.23-24.426-16.03-24.624-30.438-.124-8.081 2.991-15.845 8.771-21.862.445-.464.545-1.161.248-1.731-.297-.571-.929-.886-1.56-.79-14.129 2.189-34.438 7.497-50.953 20.349-3.326 2.588-8.015 2.325-10.677-.596-1.458-1.6-2.163-3.66-1.985-5.801.178-2.142 1.205-4.053 2.894-5.381 25.777-20.266 58.46-24.34 71.316-25.15.791-.05 1.406-.705 1.406-1.497v-.124c0-.742-.543-1.373-1.277-1.483-14.395-2.166-41.828-5.038-63.836.072-2.071.481-4.187.098-5.958-1.078-1.771-1.175-2.946-2.98-3.31-5.084-.691-4.001 2.051-7.883 6.244-8.836 23.573-5.361 51.72-2.689 66.4-.62.763.104 1.487-.384 1.668-1.136.18-.752-.24-1.518-.972-1.769-14.961-5.133-28.331-8.742-39.739-10.725-2.08-.361-3.872-1.525-5.046-3.277-1.173-1.751-1.567-3.855-1.108-5.926.874-3.941 4.95-6.547 9.09-5.81 8.633 1.537 22.977 5.501 30.759 7.728 3.619 1.035 7.355 1.56 11.106 1.56l14.212.003.208.005c15.149.095 27.401 1.46 38.559 4.297l1.486.377v19.374c0 .829.671 1.5 1.5 1.5s1.5-.671 1.5-1.5v-20.035l.008-.502c0-.686-.466-1.285-1.131-1.454l-2.625-.666c-11.399-2.898-23.881-4.293-39.279-4.39-.003 0-.102-.003-.105-.003l-14.332-.005c-3.472 0-6.931-.486-10.281-1.445-7.837-2.242-22.294-6.236-31.059-7.796-5.704-1.019-11.327 2.625-12.544 8.114-.638 2.878-.09 5.806 1.544 8.245 1.635 2.44 4.129 4.061 7.024 4.563 7.485 1.301 15.837 3.315 24.952 6.015-15.244-1.281-35.039-1.609-52.461 2.353-5.749 1.308-9.498 6.698-8.535 12.272.505 2.925 2.142 5.438 4.607 7.073 2.431 1.613 5.454 2.16 8.296 1.5 16.354-3.795 35.876-3.07 50.53-1.567-16.187 2.401-40.463 8.582-60.67 24.471-2.317 1.822-3.786 4.553-4.03 7.492-.247 2.981.732 5.847 2.757 8.069 3.71 4.071 10.183 4.486 14.737.943 14.498-11.282 32.093-16.579 45.519-19.063-4.566 6.04-6.982 13.281-6.867 20.774.217 15.771 11.552 29.783 26.953 33.319.764.175 1.53.26 2.286.26 4.199 0 8.069-2.6 9.356-6.576.843-2.604.548-5.449-.81-7.803-1.358-2.356-3.662-4.037-6.321-4.609-6.861-1.475-12.107-7.861-12.204-14.861-.096-5.514 2.97-10.535 8.2-13.429 5.181-2.865 11.024-2.798 15.631.18 4.035 2.608 6.539 7.289 6.698 12.524.163 5.131-1.983 9.915-5.742 12.796-4.08 3.128-5.278 8.638-2.788 12.818 1.396 2.344 3.721 3.997 6.378 4.534s5.436-.076 7.62-1.684c8.642-6.361 13.802-16.806 13.802-27.939 0-.369-.006-.741-.017-1.112-.089-2.938-.541-5.858-1.342-8.696 1.212-.636 2.29-1.12 3.156-1.414l12.147-4.14c.678-.231 1.098-.909 1.003-1.618-.04-.305-.06-.62-.06-.938z" fill="#3a312a"/><path d="m215.08 23.64v72.36c.13-.05.27-.07.42-.07h22.58v-72.29z" fill="#d34e5c"/><path d="m112.399 123h46.446v19.966h-46.446z" fill="#d7e057"/><path d="m158.846 121.5h-46.446c-.829 0-1.5.671-1.5 1.5v19.966c0 .829.671 1.5 1.5 1.5h46.446c.829 0 1.5-.671 1.5-1.5v-19.966c0-.829-.672-1.5-1.5-1.5zm-1.5 19.966h-43.446v-16.966h43.446z" fill="#3a312a"/></svg>